# xmcd
# 
# Track frame offsets:
#     150
#     11835
#     20202
#     29051
#     38318
#     47556
#     58190
#     70726
#     79860
#     95636
#     107301
#     120232
#     130950
#     141365
#     149414
#     164311
#     175171
#     182549
#     193844
#     211210
#     224864
#     240578
# 
# Disc length: 3346
# 
# Revision: 6
# Processed by: cddbd v1.5.2PL0 Copyright (c) Steve Scherf et al.
# Submitted via: BonkEnc v1.0.5
# 
DISCID=420d1016
DTITLE=Die schönsten Lieder der FDJ - Unser Zeichen ist die Sonne
DYEAR=0
DGENRE=
TTITLE0=Sag mir, wo du stehst
TTITLE1=Aufbaulied der FDJ (Keiner plagt sich gerne)
TTITLE2=Jugend erwach (Bau auf, Bau auf)
TTITLE3=Du hast ja ein Ziel vor den Augen
TTITLE4=Lied von der blauen Fahne (Auf den Straßen, auf den Bahnen..)
TTITLE5=Eisenbahnerlied (Es rollen die Räder...)
TTITLE6=Wir singen heute schon die Lieder von morgen
TTITLE7=Lied der Jugendbrigaden (Wir sorgen für Wasser in Sosa...)
TTITLE8=Lied über die ruhlose Jugend
TTITLE9=Carpe Diem (Nutze den Tag)
TTITLE10=Oktobersong
TTITLE11=Was machen wir zu Pfingsten
TTITLE12=Partisanen vom Amur
TTITLE13=Bandiera Rossa
TTITLE14=Komsomozenlied
TTITLE15=Orenburg Lied
TTITLE16=Drushba! - Freundschaft!
TTITLE17=Wir treffen uns in jedem Fall
TTITLE18=Wir sind überall
TTITLE19=Fahnenlied
TTITLE20=Weltjugendlied
TTITLE21=Vorwärts, freie deutsche Jugend
EXTD=
EXTT0=
EXTT1=
EXTT2=
EXTT3=
EXTT4=
EXTT5=
EXTT6=
EXTT7=
EXTT8=
EXTT9=
EXTT10=
EXTT11=
EXTT12=
EXTT13=
EXTT14=
EXTT15=
EXTT16=
EXTT17=
EXTT18=
EXTT19=
EXTT20=
EXTT21=
PLAYORDER=
